<svg xmlns="http://www.w3.org/2000/svg" xml:lang="en" height="97.14999999999999pt" width="198.39999999999998pt" viewBox="-196.39999999999998 -6.05 198.39999999999998 97.14999999999999"><circle cx="-151.47" cy="48.599999999999994" r="3.888" style="stroke:black;fill:none;stroke-width:2.0;" /><circle cx="-151.47" cy="72.89999999999999" r="3.888" style="stroke:black;fill:none;stroke-width:2.0;" /><path d="M -50.220000000000006,52.32600000000001 L -34.02000000000001,52.32600000000001 L -33.557142857142864,52.31938775510204 L -33.094285714285725,52.29955102040817 L -32.631428571428586,52.26648979591837 L -32.16857142857144,52.22020408163266 L -31.705714285714297,52.16069387755102 L -31.242857142857154,52.08795918367347 L -30.780000000000012,52.001999999999995 L -30.317142857142866,51.90281632653061 L -29.854285714285727,51.790408163265305 L -29.39142857142858,51.66477551020408 L -28.92857142857144,51.52591836734694 L -28.4657142857143,51.373836734693874 L -28.002857142857156,51.2085306122449 L -27.540000000000017,51.03 L -27.077142857142867,50.83824489795918 L -26.61428571428572,50.633265306122446 L -26.15142857142858,50.4150612244898 L -25.688571428571436,50.183632653061224 L -25.225714285714297,49.938979591836734 L -24.762857142857154,49.68110204081633 L -24.300000000000015,49.410000000000004 L -23.837142857142872,49.125673469387756 L -23.374285714285723,48.82812244897959 L -22.911428571428583,48.51734693877551 L -22.448571428571434,48.19334693877551 L -21.985714285714295,47.85612244897959 L -21.522857142857152,47.50567346938776 L -21.06000000000001,47.142 L -20.59714285714287,46.76510204081632 L -20.134285714285728,46.374979591836734 L -19.67142857142859,45.97163265306122 L -19.20857142857144,45.55506122448979 L -18.74571428571429,45.12526530612245 L -18.28285714285715,44.68224489795918 L -17.820000000000007,44.226000000000006 L -17.35714285714287,43.7565306122449 L -16.894285714285726,43.27383673469388 L -16.431428571428583,42.777918367346935 L -15.968571428571444,42.26877551020409 L -15.505714285714287,41.74640816326531 L -15.042857142857146,41.21081632653061 L -14.580000000000005,40.66199999999999 L -14.117142857142865,40.09995918367347 L -13.654285714285722,39.524693877551016 L -13.191428571428581,38.93620408163265 L -12.72857142857144,38.334489795918365 L -12.2657142857143,37.71955102040816 L -11.802857142857158,37.09138775510204 L -11.340000000000002,36.449999999999996 L -11.340000000000002,36.449999999999996 L -11.802857142857158,35.80861224489795 L -12.2657142857143,35.18044897959184 L -12.72857142857144,34.56551020408163 L -13.191428571428581,33.963795918367346 L -13.654285714285722,33.37530612244898 L -14.117142857142865,32.80004081632653 L -14.580000000000005,32.238 L -15.042857142857146,31.689183673469387 L -15.505714285714287,31.15359183673469 L -15.968571428571444,30.631224489795912 L -16.431428571428583,30.12208163265306 L -16.894285714285726,29.62616326530612 L -17.35714285714287,29.1434693877551 L -17.820000000000007,28.673999999999996 L -18.28285714285715,28.217755102040815 L -18.74571428571429,27.774734693877548 L -19.20857142857144,27.3449387755102 L -19.67142857142859,26.92836734693877 L -20.134285714285728,26.525020408163265 L -20.59714285714287,26.13489795918367 L -21.06000000000001,25.757999999999996 L -21.522857142857152,25.39432653061224 L -21.985714285714295,25.043877551020405 L -22.448571428571434,24.706653061224486 L -22.911428571428583,24.382653061224485 L -23.374285714285723,24.071877551020403 L -23.837142857142872,23.77432653061224 L -24.300000000000015,23.489999999999995 L -24.762857142857154,23.218897959183668 L -25.225714285714297,22.96102040816326 L -25.688571428571436,22.71636734693877 L -26.15142857142858,22.4849387755102 L -26.61428571428572,22.26673469387755 L -27.077142857142867,22.061755102040813 L -27.540000000000017,21.869999999999997 L -28.002857142857156,21.691469387755095 L -28.4657142857143,21.52616326530612 L -28.92857142857144,21.37408163265306 L -29.39142857142858,21.235224489795915 L -29.854285714285727,21.10959183673469 L -30.317142857142866,20.997183673469387 L -30.780000000000012,20.897999999999996 L -31.242857142857154,20.812040816326526 L -31.705714285714297,20.739306122448976 L -32.16857142857144,20.67979591836734 L -32.631428571428586,20.633510204081627 L -33.094285714285725,20.60044897959183 L -33.557142857142864,20.580612244897956 L -34.02000000000001,20.573999999999995 L -50.220000000000006,20.573999999999995 L -50.220000000000006,20.573999999999995 L -49.59792000000001,21.221999999999998 L -49.00176000000001,21.869999999999997 L -48.431520000000006,22.517999999999997 L -47.88720000000001,23.165999999999997 L -47.36880000000001,23.814 L -46.87632000000001,24.461999999999996 L -46.409760000000006,25.109999999999996 L -45.969120000000004,25.757999999999996 L -45.55440000000001,26.406 L -45.16560000000001,27.054 L -44.80272000000001,27.701999999999998 L -44.46576000000001,28.349999999999998 L -44.15472000000001,28.997999999999994 L -43.869600000000005,29.645999999999997 L -43.610400000000006,30.293999999999997 L -43.37712000000001,30.941999999999997 L -43.169760000000004,31.589999999999996 L -42.98832000000001,32.238 L -42.832800000000006,32.886 L -42.70320000000001,33.534000000000006 L -42.59952000000001,34.182 L -42.52176000000001,34.83 L -42.46992000000001,35.477999999999994 L -42.44400000000001,36.126 L -42.44400000000001,36.774 L -42.46992000000001,37.422 L -42.52176000000001,38.07 L -42.59952000000001,38.718 L -42.70320000000001,39.366 L -42.832800000000006,40.014 L -42.98832000000001,40.66199999999999 L -43.169760000000004,41.309999999999995 L -43.37712000000001,41.958 L -43.610400000000006,42.605999999999995 L -43.869600000000005,43.254 L -44.154720000000005,43.902 L -44.46576000000001,44.55 L -44.80272000000001,45.198 L -45.16560000000001,45.846 L -45.55440000000001,46.494 L -45.969120000000004,47.142 L -46.409760000000006,47.79 L -46.87632000000001,48.438 L -47.36880000000001,49.086 L -47.887200000000014,49.734 L -48.431520000000006,50.382000000000005 L -49.00176000000001,51.03 L -49.59792000000001,51.678000000000004 L -50.220000000000006,52.32600000000001" style="stroke:black;fill:none;stroke-width:2.0;stroke-linecap:round;stroke-linejoin:round;" /><path d="M -61.56000000000001,44.55 L -44.46576000000001,44.55" style="stroke:black;fill:none;stroke-width:2.0;stroke-linecap:round;stroke-linejoin:round;" /><path d="M -61.56000000000001,28.349999999999998 L -44.46576000000001,28.349999999999998" style="stroke:black;fill:none;stroke-width:2.0;stroke-linecap:round;stroke-linejoin:round;" /><path d="M -11.340000000000002,36.449999999999996 L 0.0,36.449999999999996" style="stroke:black;fill:none;stroke-width:2.0;stroke-linecap:round;stroke-linejoin:round;" /><path d="M -92.34,28.349999999999998 L -91.30206243631245,28.31671536255545 L -90.26838998071099,28.216998223936585 L -89.24323021503777,28.051258343255256 L -88.23079574066598,27.820176781232277 L -87.23524686801734,27.52470310157283 L -86.26067452095414,27.166051469005552 L -85.31108342629555,26.745695660019187 L -84.39037565753621,26.265363006798907 L -83.5023346003891,25.72702729924782 L -82.6506094060423,25.1329006742609 L -81.83869999601382,24.485424525579976 L -81.06994268022352,23.787259471583187 L -80.34749644737988,23.041274422233332 L -79.67432998401792,22.25053479011148 L -79.0532094755293,21.418289893979146 L -78.4866872393134,20.547959606630506 L -77.9770912367574,19.64312030190153 L -77.52651550714383,18.707490158582782 L -77.13681156279388,17.744913881625187 L -76.80958078080609,16.759346903422728 L -76.54616782265445,15.754839130092291 L -76.3476551086859,14.735518299540743 L -76.21485837022298,13.705573019704445 L -76.14832329754886,12.669235556660814 L -76.14832329754886,11.630764443339189 L -76.21485837022298,10.594426980295557 L -76.3476551086859,9.56448170045926 L -76.54616782265445,8.545160869907708 L -76.80958078080609,7.540653096577275 L -77.13681156279388,6.555086118374818 L -77.52651550714383,5.592509841417222 L -77.9770912367574,4.656879698098471 L -78.4866872393134,3.752040393369494 L -79.0532094755293,2.8817101060208548 L -79.67432998401792,2.0494652098885173 L -80.34749644737988,1.2587255777666717 L -81.0699426802235,0.5127405284168146 L -81.83869999601382,-0.18542452557997405 L -82.65060940604229,-0.8329006742608971 L -83.5023346003891,-1.427027299247816 L -84.39037565753621,-1.9653630067989065 L -85.31108342629555,-2.44569566001919 L -86.26067452095414,-2.8660514690055505 L -87.23524686801734,-3.224703101572832 L -88.23079574066598,-3.520176781232275 L -89.24323021503777,-3.751258343255258 L -90.26838998071099,-3.9169982239365857 L -91.30206243631245,-4.016715362555448 L -92.34,-4.05 L -92.34,-4.05 L -113.39999999999999,-4.05 L -113.39999999999999,12.149999999999999 L -113.39999999999999,28.349999999999998 L -92.34,28.349999999999998" style="stroke:black;fill:none;stroke-width:2.0;stroke-linecap:round;stroke-linejoin:round;" /><path d="M -124.74,20.25 L -113.39999999999999,20.25" style="stroke:black;fill:none;stroke-width:2.0;stroke-linecap:round;stroke-linejoin:round;" /><path d="M -124.74,4.05 L -113.39999999999999,4.05" style="stroke:black;fill:none;stroke-width:2.0;stroke-linecap:round;stroke-linejoin:round;" /><path d="M -76.14,12.149999999999999 L -64.8,12.149999999999999" style="stroke:black;fill:none;stroke-width:2.0;stroke-linecap:round;stroke-linejoin:round;" /><path d="M -61.56000000000001,28.349999999999998 L -64.8,28.349999999999998 L -64.8,12.149999999999999" style="stroke:black;fill:none;stroke-width:2.0;stroke-linecap:round;stroke-linejoin:round;" /><path d="M -92.34,76.95 L -91.30206243631245,76.91671536255545 L -90.26838998071099,76.8169982239366 L -89.24323021503777,76.65125834325525 L -88.23079574066598,76.42017678123227 L -87.23524686801734,76.12470310157283 L -86.26067452095414,75.76605146900555 L -85.31108342629555,75.34569566001919 L -84.39037565753621,74.8653630067989 L -83.5023346003891,74.32702729924782 L -82.6506094060423,73.73290067426089 L -81.83869999601382,73.08542452557998 L -81.06994268022352,72.38725947158318 L -80.34749644737988,71.64127442223334 L -79.67432998401792,70.85053479011148 L -79.0532094755293,70.01828989397914 L -78.4866872393134,69.14795960663051 L -77.9770912367574,68.24312030190153 L -77.52651550714383,67.30749015858278 L -77.13681156279388,66.34491388162517 L -76.80958078080609,65.35934690342272 L -76.54616782265445,64.35483913009229 L -76.3476551086859,63.33551829954074 L -76.21485837022298,62.30557301970445 L -76.14832329754886,61.26923555666082 L -76.14832329754886,60.23076444333918 L -76.21485837022298,59.19442698029555 L -76.3476551086859,58.164481700459255 L -76.54616782265445,57.145160869907706 L -76.80958078080609,56.140653096577275 L -77.13681156279388,55.15508611837481 L -77.52651550714383,54.19250984141722 L -77.9770912367574,53.256879698098466 L -78.4866872393134,52.352040393369485 L -79.0532094755293,51.48171010602085 L -79.67432998401792,50.64946520988852 L -80.34749644737988,49.85872557776667 L -81.0699426802235,49.11274052841681 L -81.83869999601382,48.41457547442002 L -82.65060940604229,47.7670993257391 L -83.5023346003891,47.17297270075218 L -84.39037565753621,46.63463699320109 L -85.31108342629555,46.15430433998081 L -86.26067452095414,45.73394853099445 L -87.23524686801734,45.37529689842716 L -88.23079574066598,45.07982321876772 L -89.24323021503777,44.84874165674474 L -90.26838998071099,44.68300177606341 L -91.30206243631245,44.58328463744455 L -92.34,44.55 L -92.34,44.55 L -113.39999999999999,44.55 L -113.39999999999999,60.75 L -113.39999999999999,76.95 L -92.34,76.95" style="stroke:black;fill:none;stroke-width:2.0;stroke-linecap:round;stroke-linejoin:round;" /><path d="M -124.74,68.85 L -113.39999999999999,68.85" style="stroke:black;fill:none;stroke-width:2.0;stroke-linecap:round;stroke-linejoin:round;" /><path d="M -124.74,52.65 L -113.39999999999999,52.65" style="stroke:black;fill:none;stroke-width:2.0;stroke-linecap:round;stroke-linejoin:round;" /><path d="M -76.14,60.75 L -64.8,60.75" style="stroke:black;fill:none;stroke-width:2.0;stroke-linecap:round;stroke-linejoin:round;" /><path d="M -194.39999999999998,48.599999999999994 L -176.418,48.599999999999994 M -147.582,48.599999999999994 L -129.6,48.599999999999994" style="stroke:black;fill:none;stroke-width:2.0;stroke-linecap:round;stroke-linejoin:round;" /><path d="M -176.418,32.4 L -155.358,48.599999999999994 L -176.418,64.8 L -176.418,32.4" style="stroke:black;fill:none;stroke-width:2.0;stroke-linecap:round;stroke-linejoin:round;" /><path d="M -124.74,52.65 L -129.6,52.65 L -129.6,48.599999999999994" style="stroke:black;fill:none;stroke-width:2.0;stroke-linecap:round;stroke-linejoin:round;" /><path d="M -194.39999999999998,72.89999999999999 L -176.418,72.89999999999999 M -147.582,72.89999999999999 L -129.6,72.89999999999999" style="stroke:black;fill:none;stroke-width:2.0;stroke-linecap:round;stroke-linejoin:round;" /><path d="M -176.418,56.699999999999996 L -155.358,72.89999999999999 L -176.418,89.1 L -176.418,56.699999999999996" style="stroke:black;fill:none;stroke-width:2.0;stroke-linecap:round;stroke-linejoin:round;" /><path d="M -124.74,68.85 L -129.6,68.85 L -129.6,72.89999999999999" style="stroke:black;fill:none;stroke-width:2.0;stroke-linecap:round;stroke-linejoin:round;" /><path d="M -61.56000000000001,44.55 L -64.8,44.55 L -64.8,60.75" style="stroke:black;fill:none;stroke-width:2.0;stroke-linecap:round;stroke-linejoin:round;" /></svg>